<svg xmlns="http://www.w3.org/2000/svg" width="33" height="33" viewBox="0 0 33 33">
    <g id="Group_14540" data-name="Group 14540" transform="translate(-2479 -4401.876)">
      <circle id="Ellipse_50" data-name="Ellipse 50" cx="16.5" cy="16.5" r="16.5" transform="translate(2479 4401.876)" fill="#0066dc"/>
      <rect id="Rectangle_4834" data-name="Rectangle 4834" width="17" height="19" transform="translate(2488 4408.876)" fill="#fff"/>
      <rect id="Rectangle_4833" data-name="Rectangle 4833" width="23" height="22" transform="translate(2486 4404.876)" fill="none"/>
      <path id="Dailymotion_1_" d="M13.059,10.494a2.875,2.875,0,1,0,.13,5.747A2.751,2.751,0,0,0,15.9,13.422,2.83,2.83,0,0,0,13.059,10.494ZM19.2,19.278H15.878v-1.3a4.512,4.512,0,0,1-3.448,1.366,5.284,5.284,0,0,1-3.644-1.366A5.915,5.915,0,0,1,6.748,13.4,5.907,5.907,0,0,1,8.613,9.063a5.412,5.412,0,0,1,3.882-1.6A3.9,3.9,0,0,1,15.77,8.933V3.858l3.427-.71v16.13ZM0,22.262H22.262V0H0Z" transform="translate(2484.218 4407.229)" fill="#0066dc" fill-rule="evenodd"/>
    </g>
  </svg>
  