<svg xmlns="http://www.w3.org/2000/svg" xmlns:xlink="http://www.w3.org/1999/xlink" width="33.701" height="33.701" viewBox="0 0 33.701 33.701">
    <defs>
      <linearGradient id="linear-gradient" x1="0.096" y1="0.844" x2="1.336" y2="-0.212" gradientUnits="objectBoundingBox">
        <stop offset="0.001" stop-color="#fbe18a"/>
        <stop offset="0.209" stop-color="#fcbb45"/>
        <stop offset="0.376" stop-color="#f75274"/>
        <stop offset="0.524" stop-color="#d53692"/>
        <stop offset="0.739" stop-color="#8f39ce"/>
        <stop offset="1" stop-color="#5b4fe9"/>
      </linearGradient>
    </defs>
    <g id="Group_14534" data-name="Group 14534" transform="translate(-213.403 -462.981)">
      <circle id="Ellipse_48" data-name="Ellipse 48" cx="14.76" cy="14.76" r="14.76" transform="translate(215.481 464.929)" fill="#fff"/>
      <path id="Path_4867" data-name="Path 4867" d="M230.253,496.682A16.851,16.851,0,1,1,247.1,479.831,16.87,16.87,0,0,1,230.253,496.682Zm5.682-23.688a1.247,1.247,0,1,0,1.247,1.247A1.247,1.247,0,0,0,235.935,472.995Zm-5.543,1.6a5.238,5.238,0,1,0,5.238,5.238A5.244,5.244,0,0,0,230.392,474.594Zm0,8.594a3.355,3.355,0,1,1,3.355-3.355A3.359,3.359,0,0,1,230.392,483.187Zm10.569-7.709a6.389,6.389,0,0,0-6.389-6.389H226.14a6.389,6.389,0,0,0-6.389,6.389v8.433a6.389,6.389,0,0,0,6.389,6.389h8.432a6.389,6.389,0,0,0,6.389-6.389Zm-2,8.433a4.388,4.388,0,0,1-4.388,4.387H226.14a4.388,4.388,0,0,1-4.387-4.387v-8.433a4.388,4.388,0,0,1,4.387-4.388h8.432a4.388,4.388,0,0,1,4.388,4.388Z" fill="url(#linear-gradient)"/>
    </g>
  </svg>
  