<svg id="Component_15_1" data-name="Component 15 – 1" xmlns="http://www.w3.org/2000/svg" width="36" height="36" viewBox="0 0 36 36">
  <defs>
    <style>
      .cls-1 {
        fill: #30bb1e;
      }

      .cls-2 {
        fill: #fff;
      }
    </style>
  </defs>
  <circle id="Ellipse_61" data-name="Ellipse 61" class="cls-1" cx="18" cy="18" r="18"/>
  <path id="Path_4936" data-name="Path 4936" class="cls-2" d="M88.633,370.726c0-5.39-5.363-9.758-11.979-9.758s-11.979,4.368-11.979,9.758c0,4.308,3.427,7.964,8.182,9.257a2.641,2.641,0,0,0,1.126.257h0c.336.062.677.113,1.023.151,2.226.678-.653,3.308.97,3.452,1.933.171,7.121-4.362,9.224-6.282a10.708,10.708,0,0,0,.9-.836l0,0h0A8.644,8.644,0,0,0,88.633,370.726ZM72.41,373.292a.338.338,0,0,1-.338.338H68.92a.338.338,0,0,1-.338-.338v-4.923a.338.338,0,0,1,.338-.338h.653a.338.338,0,0,1,.338.338v3.872a.06.06,0,0,0,.06.06h2.1a.338.338,0,0,1,.338.338Zm2.025,0a.338.338,0,0,1-.338.338h-.653a.338.338,0,0,1-.338-.338v-4.923a.338.338,0,0,1,.338-.338H74.1a.338.338,0,0,1,.338.338Zm5.75,0a.338.338,0,0,1-.338.338H79.1a.481.481,0,0,1-.394-.2l-2.145-3.064v2.931a.338.338,0,0,1-.338.338h-.653a.338.338,0,0,1-.338-.338v-4.923a.338.338,0,0,1,.338-.338h.741a.48.48,0,0,1,.394.205l2.145,3.064v-2.931a.338.338,0,0,1,.338-.338h.653a.338.338,0,0,1,.338.338Zm4.673-4.269a.338.338,0,0,1-.338.338h-2.1a.06.06,0,0,0-.06.06v.686a.06.06,0,0,0,.06.06h2.1a.338.338,0,0,1,.338.338v.654a.338.338,0,0,1-.338.338h-2.1a.06.06,0,0,0-.06.06v.686a.06.06,0,0,0,.06.06h2.1a.338.338,0,0,1,.338.338v.653a.338.338,0,0,1-.338.338H81.368a.338.338,0,0,1-.338-.338v-4.923a.338.338,0,0,1,.338-.338h3.151a.338.338,0,0,1,.338.338Z" transform="translate(-58.511 -354.265)"/>
</svg>
