<svg id="Group_806" data-name="Group 806" xmlns="http://www.w3.org/2000/svg" width="34.108" height="34.107" viewBox="0 0 34.108 34.107">
    <ellipse id="Ellipse_7" data-name="Ellipse 7" cx="17.054" cy="17.054" rx="17.054" ry="17.054" transform="translate(0 0)" fill="#007ab9"/>
    <g id="Group_803" data-name="Group 803" transform="translate(8.229 7.287)">
      <path id="Path_2930" data-name="Path 2930" d="M46.083,35.108v7.031H42.006v-6.56c0-1.647-.589-2.772-2.064-2.772a2.23,2.23,0,0,0-2.091,1.49,2.79,2.79,0,0,0-.135.993v6.847H33.639s.055-11.11,0-12.26h4.077v1.737c-.008.014-.02.027-.027.04h.027v-.04a4.048,4.048,0,0,1,3.674-2.025c2.682,0,4.693,1.752,4.693,5.517ZM29.375,23.969a2.124,2.124,0,1,0-.054,4.237h.026a2.125,2.125,0,1,0,.027-4.237ZM27.31,42.139h4.075V29.879H27.31Z" transform="translate(-27.068 -23.969)" fill="#f1f2f2"/>
    </g>
  </svg>
  