<svg xmlns="http://www.w3.org/2000/svg" width="34" height="34" viewBox="0 0 34 34">
    <g id="Group_14539" data-name="Group 14539" transform="translate(-1255 -4993)">
      <circle id="Ellipse_49" data-name="Ellipse 49" cx="17" cy="17" r="17" transform="translate(1255 4993)"/>
      <g id="tiktok-icon-seeklogo.com" transform="translate(1262.601 4999.255)">
        <path id="Path_4870" data-name="Path 4870" d="M12.544,17.2v-.855A6.643,6.643,0,0,0,7.838,28.37,6.642,6.642,0,0,1,12.544,17.2" transform="translate(-5 -8.565)" fill="#00f2ea" fill-rule="evenodd"/>
        <path id="Path_4871" data-name="Path 4871" d="M17.9,19.233a3.038,3.038,0,0,0,3.031-2.923l.006-14.475h2.644A5.021,5.021,0,0,1,23.49.919H19.879l-.006,14.476a3.03,3.03,0,0,1-4.439,2.573A3.032,3.032,0,0,0,17.9,19.233M28.516,6.749v-.8a4.993,4.993,0,0,1-2.736-.814,5.027,5.027,0,0,0,2.737,1.618" transform="translate(-10.194 -0.919)" fill="#00f2ea" fill-rule="evenodd"/>
        <path id="Path_4872" data-name="Path 4872" d="M24.166,6.039A5,5,0,0,1,22.93,2.745h-.968a5.034,5.034,0,0,0,2.2,3.294m-8.937,7.114a3.035,3.035,0,0,0-1.409,5.724,3.032,3.032,0,0,1,2.462-4.807,2.983,2.983,0,0,1,.9.141V10.523a6.614,6.614,0,0,0-.9-.065c-.053,0-.1,0-.157,0v2.832a2.985,2.985,0,0,0-.9-.141" transform="translate(-8.581 -1.828)" fill="#ff004f" fill-rule="evenodd"/>
        <path id="Path_4873" data-name="Path 4873" d="M26.135,12.528v2.807a8.591,8.591,0,0,1-5.025-1.616v7.34A6.642,6.642,0,0,1,10.652,26.5a6.644,6.644,0,0,0,11.511-4.526v-7.34a8.591,8.591,0,0,0,5.025,1.616V12.639a5.019,5.019,0,0,1-1.053-.112" transform="translate(-7.814 -6.698)" fill="#ff004f" fill-rule="evenodd"/>
        <path id="Path_4874" data-name="Path 4874" d="M19.34,16.189V8.849a8.589,8.589,0,0,0,5.025,1.616V7.658a5.027,5.027,0,0,1-2.736-1.619,5.034,5.034,0,0,1-2.2-3.294H16.781L16.775,17.22a3.03,3.03,0,0,1-5.492,1.657,3.035,3.035,0,0,1,1.409-5.724,2.973,2.973,0,0,1,.9.141V10.461A6.642,6.642,0,0,0,8.882,21.633,6.643,6.643,0,0,0,19.34,16.189" transform="translate(-6.044 -1.828)" fill="#fff" fill-rule="evenodd"/>
      </g>
    </g>
  </svg>
  