<svg id="Group_805" data-name="Group 805" xmlns="http://www.w3.org/2000/svg" width="34.108" height="34.107" viewBox="0 0 34.108 34.107">
    <ellipse id="Ellipse_5" data-name="Ellipse 5" cx="17.054" cy="17.054" rx="17.054" ry="17.054" transform="translate(0 0)" fill="#55acee"/>
    <g id="Group_802" data-name="Group 802" transform="translate(7.631 10.344)">
      <path id="Path_2928" data-name="Path 2928" d="M44.972,35.94a8.133,8.133,0,0,1-2.341.641,4.087,4.087,0,0,0,1.793-2.255,8.161,8.161,0,0,1-2.589.989,4.08,4.08,0,0,0-6.946,3.719,11.572,11.572,0,0,1-8.4-4.26,4.081,4.081,0,0,0,1.261,5.442,4.048,4.048,0,0,1-1.846-.51c0,.017,0,.035,0,.052a4.079,4.079,0,0,0,3.27,4,4.092,4.092,0,0,1-1.841.071,4.081,4.081,0,0,0,3.808,2.831A8.229,8.229,0,0,1,25.1,48.343a11.593,11.593,0,0,0,17.847-9.767c0-.177,0-.353-.012-.527a8.266,8.266,0,0,0,2.034-2.11Z" transform="translate(-25.103 -34.028)" fill="#f1f2f2"/>
    </g>
  </svg>
  