<svg id="Component_13_1" data-name="Component 13 – 1" xmlns="http://www.w3.org/2000/svg" width="34.11" height="34.11" viewBox="0 0 34.11 34.11">
  <defs>
    <style>
      .cls-1 {
        fill: #60fc7c;
      }

      .cls-2 {
        fill: #fff;
        fill-rule: evenodd;
      }
    </style>
  </defs>
  <g id="Group_14543" data-name="Group 14543">
    <path id="Path_4875" data-name="Path 4875" class="cls-1" d="M148.375,431.889a17.055,17.055,0,1,1,17.055-17.055A17.075,17.075,0,0,1,148.375,431.889Z" transform="translate(-131.32 -397.779)"/>
  </g>
  <g id="Group_14546" data-name="Group 14546" transform="translate(7.431 5.849)">
    <g id="Group_14544" data-name="Group 14544" transform="translate(0)">
      <path id="Path_4876" data-name="Path 4876" class="cls-2" d="M153.838,407.3a10.413,10.413,0,0,0-8.751,16.059l-1.582,3.485a.909.909,0,0,0,.828,1.286.924.924,0,0,0,.241-.032l4.359-1.2a10.415,10.415,0,1,0,4.906-19.6Zm0,19.011a8.588,8.588,0,0,1-4.328-1.17.908.908,0,0,0-.459-.125.917.917,0,0,0-.241.032l-2.847.782.992-2.186a.909.909,0,0,0-.09-.908,8.594,8.594,0,1,1,6.974,3.574Z" transform="translate(-143.423 -407.305)"/>
    </g>
    <g id="Group_14545" data-name="Group 14545" transform="translate(5.353 5.659)">
      <path id="Path_4877" data-name="Path 4877" class="cls-2" d="M160.958,422.574a1.78,1.78,0,0,0-1.518-.342c-.394.161-.646.778-.9,1.093a.378.378,0,0,1-.489.106,6.872,6.872,0,0,1-3.43-2.938.421.421,0,0,1,.053-.575,2.329,2.329,0,0,0,.623-1.012,2.218,2.218,0,0,0-.279-1.2,2.84,2.84,0,0,0-.884-1.332,1.211,1.211,0,0,0-1.315.2,2.671,2.671,0,0,0-.926,2.115,2.989,2.989,0,0,0,.083.671,5.549,5.549,0,0,0,.644,1.485,11.631,11.631,0,0,0,.672,1.023,10.377,10.377,0,0,0,2.916,2.708,8.814,8.814,0,0,0,1.818.865,4.04,4.04,0,0,0,2.117.334,2.564,2.564,0,0,0,1.92-1.428,1.244,1.244,0,0,0,.089-.729C162.044,423.115,161.364,422.817,160.958,422.574Z" transform="translate(-151.893 -416.258)"/>
    </g>
  </g>
</svg>
