<svg xmlns="http://www.w3.org/2000/svg" width="33.991" height="33.992" viewBox="0 0 33.991 33.992">
  <g id="Group_14538" data-name="Group 14538" transform="translate(-213.225 -398.068)">
    <g id="Group_14535" data-name="Group 14535" transform="translate(213.225 398.068)">
      <path id="Path_4868" data-name="Path 4868" d="M230.22,432.06a17,17,0,1,1,17-17A17.015,17.015,0,0,1,230.22,432.06Z" transform="translate(-213.225 -398.068)" fill="red"/>
    </g>
    <g id="Group_14537" data-name="Group 14537" transform="translate(220.347 408.122)">
      <g id="Group_14536" data-name="Group 14536">
        <path id="Path_4869" data-name="Path 4869" d="M244.712,418.578a4.365,4.365,0,0,0-4.365-4.365h-11.32a4.365,4.365,0,0,0-4.365,4.365v5.306a4.365,4.365,0,0,0,4.365,4.365h11.32a4.365,4.365,0,0,0,4.365-4.365Zm-7.142,2.92-4.515,2.476c-.2.107-.373-.035-.373-.259v-5.083c0-.225.182-.367.379-.256l4.546,2.607A.3.3,0,0,1,237.57,421.5Z" transform="translate(-224.662 -414.213)" fill="#fff"/>
      </g>
    </g>
  </g>
</svg>
