<svg id="Component_14_1" data-name="Component 14 – 1" xmlns="http://www.w3.org/2000/svg" width="172" height="172" viewBox="0 0 172 172">
  <defs>
    <style>
      .cls-1 {
        fill: #f2f2f2;
      }

      .cls-2 {
        fill: #ffe152;
      }

      .cls-3 {
        fill: #2ba1cf;
      }

      .cls-4 {
        fill: #66baed;
      }

      .cls-5 {
        fill: #f2f0ec;
      }

      .cls-6 {
        fill: #d8d5d0;
      }

      .cls-7 {
        fill: #cc7a3b;
      }

      .cls-8 {
        fill: #a35418;
      }

      .cls-9 {
        fill: #eab599;
      }

      .cls-10 {
        fill: #f6caae;
      }

      .cls-11 {
        fill: #3d4159;
      }

      .cls-12 {
        fill: #fff;
      }

      .cls-13 {
        fill: #bfd5de;
      }

      .cls-14 {
        fill: #dde8ed;
      }

      .cls-15 {
        fill: #d3a489;
      }

      .cls-16 {
        fill: #f74f4f;
      }

      .cls-17 {
        fill: #bf8e75;
      }

      .cls-18 {
        fill: #2a2f4f;
      }
    </style>
  </defs>
  <circle id="Ellipse_84" data-name="Ellipse 84" class="cls-1" cx="86" cy="86" r="86"/>
  <g id="teamwork" transform="translate(33 33)">
    <path id="Path_5878" data-name="Path 5878" class="cls-2" d="M105.307,52.654A52.618,52.618,0,0,1,68.619,102.84a51.6,51.6,0,0,1-7.591,1.8.163.163,0,0,1-.035,0q-1.914.306-3.868.471-.417.035-.836.064c-.394.026-.789.049-1.187.067q-1.218.058-2.45.058-1.264,0-2.51-.06-.564-.025-1.129-.067c-.281-.019-.561-.039-.84-.062q-2-.168-3.96-.486c-.623-.1-1.245-.21-1.859-.333a52.008,52.008,0,0,1-7.763-2.172q-2.176-.793-4.26-1.771-.709-.333-1.41-.69-1.8-.909-3.513-1.952a52.655,52.655,0,1,1,79.9-45.06Zm0,0"/>
    <path id="Path_5879" data-name="Path 5879" class="cls-3" d="M59.8,277.1v35.97A52,52,0,0,1,52.04,310.9q-2.177-.793-4.26-1.771-.709-.333-1.41-.69-1.8-.909-3.513-1.951a52.807,52.807,0,0,1-20.892-23.694V277.1a14.272,14.272,0,0,1,10.572-13.784c.223-.06.447-.117.675-.163a13.774,13.774,0,0,1,1.857-.276c.385-.03.774-.047,1.167-.047h9.295a14.187,14.187,0,0,1,3.027.323c.055.01.112.023.167.036.164.037.329.077.49.121l.013,0A14.286,14.286,0,0,1,59.8,277.1Zm0,0" transform="translate(-17.447 -208.773)"/>
    <path id="Path_5880" data-name="Path 5880" class="cls-4" d="M83.455,277.1v35.97a52,52,0,0,1-7.763-2.173q-2.177-.793-4.26-1.771-.709-.333-1.41-.69-1.8-.909-3.513-1.951A52.931,52.931,0,0,1,51.742,293.17V277.1a14.272,14.272,0,0,1,10.572-13.784c.224-.06.447-.117.675-.163a13.813,13.813,0,0,1,1.857-.276c.385-.03.774-.047,1.167-.047h3.17a14.187,14.187,0,0,1,3.027.323c.055.01.112.023.167.036.164.037.329.077.49.121l.013,0A14.286,14.286,0,0,1,83.455,277.1Zm0,0" transform="translate(-41.1 -208.773)"/>
    <path id="Path_5881" data-name="Path 5881" class="cls-5" d="M89.961,264.4l-.034.162-4.269,19.857a4.153,4.153,0,0,1-4.04,3.293h-.072a4.153,4.153,0,0,1-4.04-3.293l-4.269-19.855L73.2,264.4Zm0,0" transform="translate(-58.147 -210.017)"/>
    <path id="Path_5882" data-name="Path 5882" class="cls-6" d="M81.582,260.84l-6.425,3.57L73.2,255.32l3.992-2.351" transform="translate(-58.147 -200.939)"/>
    <path id="Path_5883" data-name="Path 5883" class="cls-6" d="M113.941,260.84l6.425,3.57,1.954-9.091-3.992-2.351" transform="translate(-90.506 -200.939)"/>
    <path id="Path_5884" data-name="Path 5884" class="cls-7" d="M20.676,88.9V67.377a19.184,19.184,0,1,1,38.369,0V88.9" transform="translate(-16.423 -38.279)"/>
    <path id="Path_5885" data-name="Path 5885" class="cls-8" d="M28.564,68.223c0,7.613,4.458,16.42,6.906,20.682h-14.8V67.383A19.172,19.172,0,0,1,39.716,48.2C33.818,48.346,28.564,57.809,28.564,68.223Zm0,0" transform="translate(-16.42 -38.286)"/>
    <path id="Path_5886" data-name="Path 5886" class="cls-9" d="M99.378,236.105v6.249a5.091,5.091,0,0,1-10.183,0v-6.249Zm0,0" transform="translate(-70.85 -187.544)"/>
    <path id="Path_5887" data-name="Path 5887" class="cls-10" d="M111.169,264.563v.4a5.091,5.091,0,0,1-3.586,4.863,5.089,5.089,0,0,1-3.544-4.2q.51.031,1.025.031a17.589,17.589,0,0,0,6.1-1.09Zm0,0" transform="translate(-82.64 -210.148)"/>
    <path id="Path_5888" data-name="Path 5888" class="cls-10" d="M9.47,168.031a4.735,4.735,0,1,1-3.977-4.674A4.735,4.735,0,0,1,9.47,168.031Zm0,0" transform="translate(0 -129.71)"/>
    <path id="Path_5889" data-name="Path 5889" class="cls-9" d="M28.258,168.267a4.735,4.735,0,0,1-3.977,4.674,17.7,17.7,0,0,1,0-9.348A4.734,4.734,0,0,1,28.258,168.267Zm0,0" transform="translate(-18.788 -129.946)"/>
    <path id="Path_5890" data-name="Path 5890" class="cls-9" d="M18.178,179.782a1.692,1.692,0,1,1-1.693-1.692A1.692,1.692,0,0,1,18.178,179.782Zm0,0" transform="translate(-11.75 -141.461)"/>
    <path id="Path_5891" data-name="Path 5891" class="cls-9" d="M58.071,115.415v16.276a17.55,17.55,0,0,1-9.33,4.643l-.087.014a17.4,17.4,0,0,1-2.741.213A17.616,17.616,0,0,1,28.3,118.946v-6.709a17.752,17.752,0,0,1,.18-2.53,11.164,11.164,0,0,0,14.03-.9,9.977,9.977,0,0,0,2.647-4.137,11.626,11.626,0,0,0,3.636,7.257A13,13,0,0,0,58.071,115.415Zm0,0" transform="translate(-22.477 -83.14)"/>
    <path id="Path_5892" data-name="Path 5892" class="cls-10" d="M79.257,115.415v16.276a17.55,17.55,0,0,1-9.33,4.643l-.087.014a17.619,17.619,0,0,1-14.872-17.4v-6.709q0-.268.01-.533a11.039,11.039,0,0,0,8.715-2.9,9.975,9.975,0,0,0,2.647-4.136,11.626,11.626,0,0,0,3.636,7.257A13,13,0,0,0,79.257,115.415Zm0,0" transform="translate(-43.663 -83.14)"/>
    <path id="Path_5893" data-name="Path 5893" class="cls-9" d="M137.348,155.551a2.926,2.926,0,0,0-5.852,0" transform="translate(-104.45 -121.233)"/>
    <path id="Path_5894" data-name="Path 5894" class="cls-9" d="M73.812,155.551a2.926,2.926,0,1,0-5.851,0" transform="translate(-53.983 -121.233)"/>
    <path id="Path_5895" data-name="Path 5895" class="cls-11" d="M76.466,165.19a2,2,0,1,1-2-2A2,2,0,0,1,76.466,165.19Zm0,0" transform="translate(-57.563 -129.626)"/>
    <path id="Path_5896" data-name="Path 5896" class="cls-11" d="M140,165.19a2,2,0,1,1-2-2A2,2,0,0,1,140,165.19Zm0,0" transform="translate(-108.034 -129.626)"/>
    <path id="Path_5897" data-name="Path 5897" class="cls-9" d="M104.906,190.712h-4a.862.862,0,1,1,0-1.724h4a.862.862,0,0,1,0,1.724Zm0,0" transform="translate(-79.469 -150.117)"/>
    <path id="Path_5898" data-name="Path 5898" class="cls-9" d="M95.8,213.927a8.9,8.9,0,0,1-4.3-1.11.784.784,0,1,1,.755-1.373,7.311,7.311,0,0,0,7.08,0,.784.784,0,1,1,.755,1.373A8.9,8.9,0,0,1,95.8,213.927Zm0,0" transform="translate(-72.359 -167.878)"/>
    <path id="Path_5899" data-name="Path 5899" class="cls-12" d="M83.307,167.884a.856.856,0,1,1-.856-.856A.857.857,0,0,1,83.307,167.884Zm0,0" transform="translate(-64.812 -132.673)"/>
    <path id="Path_5900" data-name="Path 5900" class="cls-12" d="M147.321,167.884a.856.856,0,1,1-.856-.856A.856.856,0,0,1,147.321,167.884Zm0,0" transform="translate(-115.661 -132.673)"/>
    <path id="Path_5901" data-name="Path 5901" class="cls-9" d="M155.3,188.1A2.195,2.195,0,1,1,153.1,185.9,2.195,2.195,0,0,1,155.3,188.1Zm0,0" transform="translate(-119.871 -147.666)"/>
    <path id="Path_5902" data-name="Path 5902" class="cls-9" d="M60.041,188.1a2.194,2.194,0,1,1-2.194-2.195A2.194,2.194,0,0,1,60.041,188.1Zm0,0" transform="translate(-44.206 -147.666)"/>
    <path id="Path_5903" data-name="Path 5903" class="cls-13" d="M336.138,272.455v6.591a52.863,52.863,0,0,1-25.609,25.871,52.124,52.124,0,0,1-6.353,2.482,51.591,51.591,0,0,1-7.591,1.8.16.16,0,0,1-.035,0V272.455a14.927,14.927,0,0,1,13.71-14.879c.4-.034.81-.049,1.22-.049H321.2a14.907,14.907,0,0,1,14.934,14.928Zm0,0" transform="translate(-235.557 -204.56)"/>
    <path id="Path_5904" data-name="Path 5904" class="cls-14" d="M365.587,272.455v6.591a52.863,52.863,0,0,1-25.609,25.871,52.119,52.119,0,0,1-6.353,2.482V272.455a14.931,14.931,0,0,1,14.932-14.928h2.1A14.929,14.929,0,0,1,365.587,272.455Zm0,0" transform="translate(-265.006 -204.56)"/>
    <path id="Path_5905" data-name="Path 5905" class="cls-15" d="M283.47,158.333a4.95,4.95,0,1,1-4.16-4.89A4.954,4.954,0,0,1,283.47,158.333Zm0,0" transform="translate(-217.297 -121.832)"/>
    <path id="Path_5906" data-name="Path 5906" class="cls-16" d="M381.314,283.711l-4.008,6.429-4.008-6.429" transform="translate(-296.518 -225.358)"/>
    <path id="Path_5907" data-name="Path 5907" class="cls-16" d="M377.349,326.669l-5.393,6.805-5.393-6.805,5.394-19.834Zm0,0" transform="translate(-291.168 -243.726)"/>
    <path id="Path_5908" data-name="Path 5908" class="cls-17" d="M303.13,158.578a4.954,4.954,0,0,1-4.16,4.891,18.526,18.526,0,0,1,0-9.781A4.955,4.955,0,0,1,303.13,158.578Zm0,0" transform="translate(-236.956 -122.077)"/>
    <path id="Path_5909" data-name="Path 5909" class="cls-17" d="M292.584,170.629a1.77,1.77,0,1,1-1.771-1.77A1.771,1.771,0,0,1,292.584,170.629Zm0,0" transform="translate(-229.593 -134.129)"/>
    <path id="Path_5910" data-name="Path 5910" class="cls-13" d="M358.923,255.431l-6.722,3.736-2.045-9.512,4.176-2.46" transform="translate(-278.137 -196.353)"/>
    <path id="Path_5911" data-name="Path 5911" class="cls-13" d="M392.777,255.431l6.722,3.736,2.045-9.512-4.177-2.46" transform="translate(-311.991 -196.353)"/>
    <path id="Path_5912" data-name="Path 5912" class="cls-15" d="M463.828,158.333a4.95,4.95,0,1,0,4.16-4.89A4.954,4.954,0,0,0,463.828,158.333Zm0,0" transform="translate(-368.429 -121.832)"/>
    <g id="Group_16124" data-name="Group 16124" transform="translate(62.355 15.405)">
      <path id="Path_5913" data-name="Path 5913" class="cls-17" d="M463.828,158.578a4.954,4.954,0,0,0,4.16,4.891,18.524,18.524,0,0,0,0-9.781A4.955,4.955,0,0,0,463.828,158.578Zm0,0" transform="translate(-430.784 -137.483)"/>
      <path id="Path_5914" data-name="Path 5914" class="cls-17" d="M482.846,170.629a1.771,1.771,0,1,1-1.771-1.77A1.771,1.771,0,0,1,482.846,170.629Zm0,0" transform="translate(-443.077 -149.534)"/>
      <path id="Path_5915" data-name="Path 5915" class="cls-17" d="M340.032,93.363a18.433,18.433,0,0,1-15.474,18.194,18.208,18.208,0,0,1-2.958.238,18.43,18.43,0,0,1-18.432-18.432c0-4.817,1.673-12.047,4.7-15.331,3.368-3.656,8.37-3.1,13.734-3.1a18.214,18.214,0,0,1,2.958.239A18.432,18.432,0,0,1,340.032,93.363Zm0,0" transform="translate(-303.168 -74.9)"/>
      <path id="Path_5916" data-name="Path 5916" class="cls-17" d="M377.537,229.559V236.1a5.327,5.327,0,0,1-10.654,0v-6.538Zm0,0" transform="translate(-353.778 -197.749)"/>
    </g>
    <path id="Path_5917" data-name="Path 5917" class="cls-15" d="M389.874,259.328v.415a3.851,3.851,0,1,1-7.46.693q.534.033,1.073.033a18.311,18.311,0,0,0,2.958-.238A18.126,18.126,0,0,0,389.874,259.328Zm0,0" transform="translate(-303.76 -205.99)"/>
    <path id="Path_5918" data-name="Path 5918" class="cls-15" d="M362.881,94.4a18.433,18.433,0,0,1-15.474,18.194,18.433,18.433,0,0,1,0-36.388A18.438,18.438,0,0,1,362.79,92.559Q362.881,93.467,362.881,94.4Zm0,0" transform="translate(-263.662 -60.53)"/>
    <path id="Path_5919" data-name="Path 5919" class="cls-17" d="M373.787,198.379a9.309,9.309,0,0,1-4.494-1.16.82.82,0,1,1,.79-1.437,7.655,7.655,0,0,0,7.408,0,.82.82,0,0,1,.79,1.437A9.315,9.315,0,0,1,373.787,198.379Zm0,0" transform="translate(-293 -155.433)"/>
    <path id="Path_5920" data-name="Path 5920" class="cls-11" d="M357.549,151.373a2.091,2.091,0,1,1-2.091-2.091A2.091,2.091,0,0,1,357.549,151.373Zm0,0" transform="translate(-280.687 -118.577)"/>
    <path id="Path_5921" data-name="Path 5921" class="cls-11" d="M416.049,151.373a2.091,2.091,0,1,1-2.091-2.091A2.091,2.091,0,0,1,416.049,151.373Zm0,0" transform="translate(-327.155 -118.577)"/>
    <path id="Path_5922" data-name="Path 5922" class="cls-12" d="M364.706,154.193a.9.9,0,1,1-.9-.9A.9.9,0,0,1,364.706,154.193Zm0,0" transform="translate(-288.27 -121.767)"/>
    <path id="Path_5923" data-name="Path 5923" class="cls-12" d="M423.706,154.193a.9.9,0,1,1-.9-.9A.9.9,0,0,1,423.706,154.193Zm0,0" transform="translate(-335.135 -121.767)"/>
    <path id="Path_5924" data-name="Path 5924" class="cls-17" d="M383.315,178.077h-4.182a.9.9,0,1,1,0-1.8h4.182a.9.9,0,1,1,0,1.8Zm0,0" transform="translate(-300.437 -140.018)"/>
    <path id="Path_5925" data-name="Path 5925" class="cls-13" d="M422.289,327.727h8.035v2.459h-8.035Zm0,0" transform="translate(-335.433 -260.32)"/>
    <path id="Path_5926" data-name="Path 5926" class="cls-18" d="M387.539,49.337A11.171,11.171,0,0,1,397.89,59.924l.053,1.066h3.212l1.73,11.5,4.19-1.3-.562-11.272a11.172,11.172,0,0,0-11.2-10.617Zm0,0" transform="translate(-307.831 -39.167)"/>
    <path id="Path_5927" data-name="Path 5927" class="cls-11" d="M415.875,27.816a11.386,11.386,0,0,1-16.1,16.1Zm0,0" transform="translate(-317.549 -22.095)"/>
    <path id="Path_5928" data-name="Path 5928" class="cls-11" d="M322.945,60.986H308.971l-1.731,11.5-4.19-1.3.562-11.273a11.173,11.173,0,0,1,11.2-10.617l20.181.076,2.668,4.8" transform="translate(-240.72 -39.163)"/>
    <path id="Path_5929" data-name="Path 5929" class="cls-18" d="M322.582,49.337a11.171,11.171,0,0,0-10.351,10.587l-.053,1.066h-3.211l-1.731,11.5-4.19-1.3.562-11.272a11.171,11.171,0,0,1,11.2-10.617Zm0,0" transform="translate(-240.717 -39.167)"/>
    <path id="Path_5930" data-name="Path 5930" class="cls-11" d="M192.116,403.719v3.948a52.792,52.792,0,0,1-44.639,0v-3.946a16.839,16.839,0,0,1,12.473-16.265c.263-.071.527-.136.8-.194a16.669,16.669,0,0,1,2.19-.322c.456-.037.913-.056,1.378-.056h10.964a16.879,16.879,0,0,1,3.572.378c.067.013.133.028.2.043.194.045.387.092.578.144l.015,0a16.853,16.853,0,0,1,12.476,16.267Zm0,0" transform="translate(-117.144 -307.309)"/>
    <path id="Path_5931" data-name="Path 5931" class="cls-4" d="M227.7,388.723l-.041.191-5.37,24.975q-.417.035-.836.064c-.394.026-.789.049-1.187.067q-1.218.058-2.45.058-1.264,0-2.51-.06-.564-.025-1.129-.067c-.281-.019-.561-.039-.84-.062l-5.368-24.973-.04-.194Zm0,0" transform="translate(-165.16 -308.771)"/>
    <path id="Path_5932" data-name="Path 5932" class="cls-11" d="M243.059,416.422l-4.52,7.249-4.519-7.249" transform="translate(-185.887 -330.773)"/>
    <path id="Path_5933" data-name="Path 5933" class="cls-11" d="M245.584,456.664c-.394.026-.789.049-1.187.067q-1.218.058-2.45.058-1.264,0-2.51-.06-.564-.025-1.129-.067l3.639-14.169Zm0,0" transform="translate(-189.294 -351.481)"/>
    <path id="Path_5934" data-name="Path 5934" class="cls-3" d="M217.808,384.529l-7.58,4.212-2.306-10.725,4.71-2.774" transform="translate(-165.157 -298.063)"/>
    <path id="Path_5935" data-name="Path 5935" class="cls-3" d="M255.988,384.529l7.58,4.212,2.306-10.725-4.71-2.774" transform="translate(-203.337 -298.063)"/>
    <path id="Path_5936" data-name="Path 5936" class="cls-18" d="M275.63,403.2h2.4l-4.2,10.216a52.31,52.31,0,0,1-5.925.607l7.378-25.11.056-.187,5.186,1.694Zm0,0" transform="translate(-212.807 -308.771)"/>
    <path id="Path_5937" data-name="Path 5937" class="cls-18" d="M195.052,414.018a52.158,52.158,0,0,1-5.929-.615l-4.2-10.206h2.4l-4.9-12.781,5.188-1.694.056.187Zm0,0" transform="translate(-144.908 -308.771)"/>
    <path id="Path_5938" data-name="Path 5938" class="cls-9" d="M238.8,355.352v7.371a6.007,6.007,0,0,1-12.014,0v-7.371Zm0,0" transform="translate(-180.14 -282.263)"/>
    <path id="Path_5939" data-name="Path 5939" class="cls-10" d="M252.71,388.922v.468a6.008,6.008,0,0,1-4.231,5.738,6.006,6.006,0,0,1-4.182-4.956q.6.037,1.21.037a20.709,20.709,0,0,0,7.2-1.286Zm0,0" transform="translate(-194.05 -308.929)"/>
    <path id="Path_5940" data-name="Path 5940" class="cls-10" d="M132.724,275.032a5.588,5.588,0,0,1-4.692,5.515,5.654,5.654,0,0,1-.894.071,5.587,5.587,0,1,1,5.586-5.586Zm0,0" transform="translate(-96.55 -214.026)"/>
    <path id="Path_5941" data-name="Path 5941" class="cls-9" d="M154.894,275.312a5.588,5.588,0,0,1-4.692,5.515,20.9,20.9,0,0,1,0-11.03A5.588,5.588,0,0,1,154.894,275.312Zm0,0" transform="translate(-118.72 -214.305)"/>
    <path id="Path_5942" data-name="Path 5942" class="cls-9" d="M143,288.9a2,2,0,1,1-2-2A2,2,0,0,1,143,288.9Zm0,0" transform="translate(-110.417 -227.893)"/>
    <path id="Path_5943" data-name="Path 5943" class="cls-10" d="M336.105,275.032a5.588,5.588,0,0,0,4.692,5.515,5.646,5.646,0,0,0,.894.071,5.587,5.587,0,1,0-5.586-5.586Zm0,0" transform="translate(-266.976 -214.026)"/>
    <path id="Path_5944" data-name="Path 5944" class="cls-9" d="M336.105,275.312a5.588,5.588,0,0,0,4.692,5.515,20.9,20.9,0,0,0,0-11.03A5.588,5.588,0,0,0,336.105,275.312Zm0,0" transform="translate(-266.976 -214.305)"/>
    <path id="Path_5945" data-name="Path 5945" class="cls-9" d="M196.51,163.422v7.915a20.785,20.785,0,0,1-17.45,20.516l-.1.017a20.423,20.423,0,0,1-3.235.251,20.783,20.783,0,0,1-20.783-20.783v-7.915a20.772,20.772,0,0,1,20.783-20.786h0a20.77,20.77,0,0,1,20.784,20.786Zm0,0" transform="translate(-123.073 -113.299)"/>
    <path id="Path_5946" data-name="Path 5946" class="cls-9" d="M357.552,288.9a2,2,0,1,1-2-2A2,2,0,0,1,357.552,288.9Zm0,0" transform="translate(-280.839 -227.893)"/>
    <path id="Path_5947" data-name="Path 5947" class="cls-10" d="M221.5,164.393v7.915a20.785,20.785,0,0,1-17.449,20.516l-.1.017a20.788,20.788,0,0,1-17.545-20.533v-7.915a20.789,20.789,0,0,1,17.549-20.534A20.788,20.788,0,0,1,221.5,164.393Zm0,0" transform="translate(-148.066 -114.271)"/>
    <path id="Path_5948" data-name="Path 5948" class="cls-11" d="M216.258,267.185a2.358,2.358,0,1,1-2.357-2.357A2.358,2.358,0,0,1,216.258,267.185Zm0,0" transform="translate(-168.033 -210.359)"/>
    <path id="Path_5949" data-name="Path 5949" class="cls-11" d="M282.228,267.185a2.358,2.358,0,1,1-2.358-2.357A2.358,2.358,0,0,1,282.228,267.185Zm0,0" transform="translate(-220.434 -210.359)"/>
    <path id="Path_5950" data-name="Path 5950" class="cls-12" d="M224.329,270.366a1.01,1.01,0,1,1-1.011-1.011A1.01,1.01,0,0,1,224.329,270.366Zm0,0" transform="translate(-176.585 -213.955)"/>
    <path id="Path_5951" data-name="Path 5951" class="cls-12" d="M290.86,270.366a1.01,1.01,0,1,1-1.01-1.011A1.01,1.01,0,0,1,290.86,270.366Zm0,0" transform="translate(-229.432 -213.955)"/>
    <path id="Path_5952" data-name="Path 5952" class="cls-9" d="M245.315,292.8H240.6a1.017,1.017,0,1,1,0-2.034h4.716a1.017,1.017,0,1,1,0,2.034Zm0,0" transform="translate(-190.305 -230.964)"/>
    <path id="Path_5953" data-name="Path 5953" class="cls-9" d="M234.57,320.19a10.5,10.5,0,0,1-5.067-1.309.925.925,0,0,1,.891-1.621,8.624,8.624,0,0,0,8.352,0,.925.925,0,0,1,.891,1.621A10.5,10.5,0,0,1,234.57,320.19Zm0,0" transform="translate(-181.918 -251.916)"/>
    <path id="Path_5954" data-name="Path 5954" class="cls-18" d="M196.507,144.145v8.107h-3.869V145.9l-27.924-5.189-5.908-1.1v12.636h-3.869v-8.108A16.732,16.732,0,0,1,171.67,127.41h8.105c.22,0,.44,0,.66.015A16.73,16.73,0,0,1,196.507,144.145Zm0,0" transform="translate(-123.07 -101.205)"/>
    <path id="Path_5955" data-name="Path 5955" class="cls-11" d="M234.265,144.2v8.107H230.4v-6.35l-27.924-5.189a16.021,16.021,0,0,1,31.793,3.431Zm0,0" transform="translate(-160.828 -101.264)"/>
  </g>
</svg>
