<svg id="Component_17_1" data-name="Component 17 – 1" xmlns="http://www.w3.org/2000/svg" width="172" height="172" viewBox="0 0 172 172">
  <defs>
    <style>
      .cls-1 {
        fill: #f2f2f2;
      }

      .cls-2 {
        fill: #c5f3ff;
      }

      .cls-3 {
        fill: #ccc;
      }

      .cls-4 {
        fill: #45c1ed;
      }

      .cls-5 {
        fill: #e6e6e6;
      }

      .cls-6 {
        fill: #23a2c4;
      }
    </style>
  </defs>
  <circle id="Ellipse_87" data-name="Ellipse 87" class="cls-1" cx="86" cy="86" r="86"/>
  <g id="windmill" transform="translate(40 32)">
    <path id="Path_5956" data-name="Path 5956" class="cls-2" d="M101.3,93.617A39.816,39.816,0,1,1,61.484,53.8,39.816,39.816,0,0,1,101.3,93.617Zm0,0" transform="translate(-17.227 -42.513)"/>
    <path id="Path_5957" data-name="Path 5957" class="cls-3" d="M160,248.14l7.859,51.755H136.355l7.1-46.751,8.656-9.563h12.453Zm0,0" transform="translate(-107.853 -192.479)"/>
    <g id="Group_16125" data-name="Group 16125" transform="translate(0)">
      <path id="Path_5958" data-name="Path 5958" class="cls-4" d="M137.034,51.1,117.277,40.754,129.038,0h8Zm0,0" transform="translate(-92.778)"/>
      <path id="Path_5959" data-name="Path 5959" class="cls-4" d="M44.757,243.582l.916,22.285L4.5,276.06l-4-6.926Zm0,0" transform="translate(-0.5 -192.479)"/>
      <path id="Path_5960" data-name="Path 5960" class="cls-4" d="M211.449,198.627l18.842-11.936,29.414,30.562-4,6.926Zm0,0" transform="translate(-167.192 -147.524)"/>
    </g>
    <path id="Path_5961" data-name="Path 5961" class="cls-5" d="M174.672,388.349l5.261-28.065,13.223-4.764,4.985,32.829Zm0,0" transform="translate(-138.131 -280.932)"/>
    <path id="Path_5962" data-name="Path 5962" class="cls-6" d="M191.233,216.061a7.308,7.308,0,1,1-7.308-7.307A7.307,7.307,0,0,1,191.233,216.061Zm0,0" transform="translate(-139.668 -164.958)"/>
    <path id="Path_5963" data-name="Path 5963" class="cls-5" d="M202.807,231.815a3.124,3.124,0,1,1-3.124-3.124A3.125,3.125,0,0,1,202.807,231.815Zm0,0" transform="translate(-155.426 -180.712)"/>
  </g>
</svg>
