<svg xmlns="http://www.w3.org/2000/svg" width="190.307" height="38.141" viewBox="0 0 190.307 38.141">
  <g id="Group_13326" data-name="Group 13326" transform="translate(-141 -3163)">
    <rect id="Rectangle_193-2" data-name="Rectangle 193-2" width="5.11" height="12.58" transform="translate(171.662 3175.931)" fill="#d9594c"/>
    <rect id="Rectangle_194-2" data-name="Rectangle 194-2" width="5.11" height="3.735" transform="translate(176.773 3172.196)" fill="#dd8e3f"/>
    <rect id="Rectangle_195-2" data-name="Rectangle 195-2" width="5.11" height="25.21" transform="translate(161.442 3175.931)" fill="#d9594c"/>
    <rect id="Rectangle_196-2" data-name="Rectangle 196-2" width="5.11" height="10.252" transform="translate(166.552 3165.679)" fill="#dd8e3f"/>
    <rect id="Rectangle_197-2" data-name="Rectangle 197-2" width="5.11" height="16.125" transform="translate(151.221 3175.931)" fill="#d9594c"/>
    <rect id="Rectangle_198-2" data-name="Rectangle 198-2" width="5.11" height="12.931" transform="translate(156.331 3163)" fill="#dd8e3f"/>
    <rect id="Rectangle_199-2" data-name="Rectangle 199-2" width="5.11" height="5.238" transform="translate(141 3175.931)" fill="#d9594c"/>
    <rect id="Rectangle_200-2" data-name="Rectangle 200-2" width="5.11" height="5.726" transform="translate(146.11 3170.204)" fill="#dd8e3f"/>
    <path id="Path_3989" data-name="Path 3989" d="M229.775,262.5v12.921a.446.446,0,0,1-.493.493h-3.1a.446.446,0,0,1-.493-.493v-2.289a6.432,6.432,0,0,1-5.563,3.169,5.591,5.591,0,0,1-5.985-5.88c0-3.521,2.324-5.563,7.394-5.915a30.045,30.045,0,0,1,3.979-.036v-1.8c0-2.183-1.2-3.064-3.2-3.064s-2.746.74-3.239,2.113c-.141.387-.282.457-.669.352l-3.063-.774c-.317-.106-.423-.282-.317-.563.563-2.747,3.063-4.648,7.464-4.648C227.029,256.1,229.775,258.244,229.775,262.5Zm-4.26,7.147v-2.394a31.025,31.025,0,0,0-3.626.07c-2.289.246-3.591,1.021-3.591,2.852,0,1.584,1.091,2.605,2.957,2.605A4.485,4.485,0,0,0,225.515,269.651Z" transform="translate(-8.483 2919.061)" fill="#48a9a6"/>
    <path id="Path_3990" data-name="Path 3990" d="M266.734,245.589v4.436h3.873c.282,0,.458.176.458.528v2.535c0,.352-.176.493-.458.493h-3.873v9.788c0,1.408.775,2.113,2.359,2.113h1.479a.431.431,0,0,1,.493.493v2.851a.431.431,0,0,1-.493.493h-2.183c-3.943,0-5.915-2.113-5.915-5.352V253.581h-2.429a.431.431,0,0,1-.493-.493v-2.535c0-.352.176-.528.493-.528h2.465v-4.436A.462.462,0,0,1,263,245.1h3.239A.445.445,0,0,1,266.734,245.589Z" transform="translate(-35.724 2925.66)" fill="#48a9a6"/>
    <path id="Path_3991" data-name="Path 3991" d="M309.416,262.5v12.921a.446.446,0,0,1-.493.493h-3.1a.445.445,0,0,1-.493-.493v-2.289a6.432,6.432,0,0,1-5.563,3.169,5.591,5.591,0,0,1-5.985-5.88c0-3.521,2.324-5.563,7.393-5.915a30.045,30.045,0,0,1,3.978-.036v-1.8c0-2.183-1.2-3.064-3.2-3.064s-2.747.74-3.239,2.113c-.141.387-.282.457-.669.352l-3.064-.774c-.316-.106-.422-.282-.316-.563.563-2.747,3.063-4.648,7.464-4.648C306.67,256.1,309.416,258.244,309.416,262.5Zm-4.26,7.147v-2.394a31.024,31.024,0,0,0-3.626.07c-2.289.246-3.591,1.021-3.591,2.852,0,1.584,1.091,2.605,2.957,2.605A4.485,4.485,0,0,0,305.156,269.651Z" transform="translate(-56.26 2919.061)" fill="#48a9a6"/>
    <path id="Path_3992" data-name="Path 3992" d="M409.822,263.912v4.577c0,4.612-2.64,7.816-8.274,7.816-5.562,0-8.238-3.2-8.238-7.711v-4.577c0-4.612,2.676-7.922,8.238-7.922C407.182,256.1,409.822,259.406,409.822,263.912Zm-12.146.211v4.26c0,2.605,1.3,4.084,3.873,4.084,2.605,0,3.908-1.478,3.908-4.084v-4.26c0-2.605-1.3-4.19-3.908-4.19C398.978,259.933,397.675,261.518,397.675,264.123Z" transform="translate(-115.966 2919.061)" fill="#48a9a6"/>
    <path id="Path_3993" data-name="Path 3993" d="M460,265.36h-3.7a.617.617,0,0,1-.634-.422l-4.4-8.1-2.641,3.1v4.929a.445.445,0,0,1-.492.493h-3.38a.445.445,0,0,1-.492-.493V238.99a.461.461,0,0,1,.492-.493h3.38a.461.461,0,0,1,.492.493v15.6l6.619-8.168a1.184,1.184,0,0,1,.985-.493h3.556a.4.4,0,0,1,.316.669l-5.915,6.865,6.162,11.231A.412.412,0,0,1,460,265.36Z" transform="translate(-146.533 2929.619)" fill="#48a9a6"/>
    <path id="Path_3994" data-name="Path 3994" d="M504.688,260.673a.473.473,0,0,1-.352.669l-2.57.915c-.387.106-.563,0-.669-.352a3.543,3.543,0,0,0-3.732-2.359c-1.972,0-3.134.81-3.134,2.077,0,1.2.81,1.69,4.542,2.746,4.4,1.232,6.162,2.958,6.162,6.021,0,3.591-2.958,5.95-7.5,5.95-4.084,0-7.042-1.69-7.957-4.577-.141-.387,0-.6.423-.775l2.288-1.127c.423-.141.634-.07.775.422.528,1.62,2.183,2.606,4.331,2.606,2.183,0,3.451-.845,3.451-2.218,0-1.267-1.057-1.936-4.718-2.957-4.224-1.2-5.985-2.852-5.985-5.81,0-3.485,2.851-5.809,7.182-5.809C501.026,256.1,503.772,257.786,504.688,260.673Z" transform="translate(-173.626 2919.061)" fill="#48a9a6"/>
    <g id="Group_13316" data-name="Group 13316" transform="translate(186.42 3168.163)">
      <path id="Path_3995" data-name="Path 3995" d="M178.327,262.985c-.809,1.372-2.847,3.562-5.486,2.813-4.153-1.178-6.787-2.954-6.787-7.42v-5.2c0-4.466,2.637-7.525,6.611-7.525,2.848,0,4.747.6,5.521,1.971v-8.547a.424.424,0,0,1,.457-.457h3.446a.443.443,0,0,1,.457.457V259.4m-4.36-1.658v-3.939a3.968,3.968,0,0,0-4.009-4.325c-2.461,0-3.762,1.618-3.762,4.325v3.939c0,2.743,1.3,4.22,3.762,4.22A3.879,3.879,0,0,0,178.186,257.746Z" transform="translate(-166.054 -238.616)" fill="#48a9a6"/>
    </g>
    <path id="Subtraction_1" data-name="Subtraction 1" d="M8.226,11.918a9.55,9.55,0,0,1-5.817-1.854A5.666,5.666,0,0,1,0,5.587C0,3.26,1.652,1.126,4.312.017V3.493L4.54,5.217a3.2,3.2,0,0,0,3.25,2.412,2.712,2.712,0,0,0,.3-.014A4.171,4.171,0,0,0,11.27,6.427,3.556,3.556,0,0,0,12.1,3.972V0c2.685,1.105,4.352,3.246,4.352,5.587a5.666,5.666,0,0,1-2.409,4.477A9.55,9.55,0,0,1,8.226,11.918Z" transform="translate(186.458 3183.582)" fill="#48a9a6"/>
    <g id="Group_13317" data-name="Group 13317" transform="translate(257.165 3168.166)">
      <path id="Path_3997" data-name="Path 3997" d="M342.876,259.484v-20.4a.445.445,0,0,1,.459-.459h3.458a.426.426,0,0,1,.458.459v8.577c.777-1.376,2.682-1.978,5.541-1.978,3.988,0,6.634,3.07,6.634,7.552v5.223c0,4.481-2.644,6.263-6.811,7.446-2.648.751-4.693-1.447-5.505-2.823m4.164-1.023c2.471,0,3.776-1.482,3.776-4.235v-3.953c0-2.717-1.306-4.341-3.776-4.341a3.982,3.982,0,0,0-4.023,4.341v3.953A3.892,3.892,0,0,0,351.275,262.054Z" transform="translate(-342.876 -238.622)" fill="#48a9a6"/>
    </g>
    <path id="Subtraction_2" data-name="Subtraction 2" d="M8.255,11.96A9.584,9.584,0,0,1,2.418,10.1,5.687,5.687,0,0,1,0,5.606C0,3.257,1.673,1.109,4.367,0V3.986A3.569,3.569,0,0,0,5.2,6.45,4.186,4.186,0,0,0,8.389,7.642a2.7,2.7,0,0,0,.3.014,3.214,3.214,0,0,0,3.262-2.421L12.184,3.5V.016c2.669,1.114,4.327,3.256,4.327,5.59A5.687,5.687,0,0,1,14.093,10.1,9.583,9.583,0,0,1,8.255,11.96Z" transform="translate(257.167 3183.639)" fill="#48a9a6"/>
  </g>
</svg>
